<?xml version="1.0" standalone="no"?>
<!DOCTYPE svg PUBLIC "-//W3C//DTD SVG 20010904//EN"
 "http://www.w3.org/TR/2001/REC-SVG-20010904/DTD/svg10.dtd">
<svg version="1.0" xmlns="http://www.w3.org/2000/svg"
 width="91.000000pt" height="91.000000pt" viewBox="0 0 91.000000 91.000000"
 preserveAspectRatio="xMidYMid meet">
<metadata>
Created by potrace 1.11, written by Peter Selinger 2001-2013
</metadata>
<g transform="translate(0.000000,91.000000) scale(0.100000,-0.100000)"
fill="#000000" stroke="none">
<path d="M362 894 c-239 -49 -396 -286 -351 -529 30 -163 172 -311 335 -348
285 -66 554 143 555 432 2 289 -257 502 -539 445z m265 -74 c146 -67 237 -215
234 -376 -6 -290 -312 -482 -574 -361 -271 125 -326 466 -108 671 122 113 292
139 448 66z"/>
<path d="M465 708 c-26 -14 -63 -56 -82 -92 -18 -34 -10 -74 18 -94 19 -13 19
-15 -21 -59 -81 -87 -129 -237 -91 -284 36 -44 109 -21 182 58 58 64 87 83
126 83 40 0 44 16 6 23 -41 8 -105 -26 -149 -80 -53 -65 -124 -105 -124 -70 0
57 46 146 148 286 41 56 42 76 5 66 -70 -18 -80 5 -33 78 43 69 98 85 86 26
-3 -15 -1 -31 4 -34 16 -10 23 44 10 75 -13 33 -47 40 -85 18z"/>
</g>
</svg>
